<svg xmlns="http://www.w3.org/2000/svg" viewBox="0 0 750.16 119.37"><defs><style>.cls-1{fill:#fff;}</style></defs><title>energise-logo</title><g id="Layer_2" data-name="Layer 2"><g id="ENERGISE_ONE_PAGER" data-name="ENERGISE ONE PAGER"><polygon class="cls-1" points="126 115.03 118.96 115.03 118.96 70.43 126 80.62 126 115.03"/><rect class="cls-1" x="181.68" y="2.17" width="7.03" height="112.86"/><polygon class="cls-1" points="144.8 33.55 144.8 46.16 113.44 2.17 122.56 2.17 144.8 33.55"/><path class="cls-1" d="M150.69,2.17V63.34L107.23,2.17H87.91V114.86h25.76V53.68l43.47,61.18h19.32V2.17Zm16.7,101.11h-7v-.53L103.57,24v80.36h-7V14.2h9.13l54.7,75.88v-78h7Z"/><path class="cls-1" d="M233.24,90.07v-20h42.34V45.64H233.24V27h44.27V2.17h-70V114.86h70.84V90.07Zm30.08-38.34a6.69,6.69,0,1,1-6.69,6.69A6.69,6.69,0,0,1,263.32,51.73Zm-21.07,0a6.69,6.69,0,1,1-6.69,6.69A6.69,6.69,0,0,1,242.25,51.73ZM263.32,7.56a6.69,6.69,0,1,1-6.69,6.69A6.69,6.69,0,0,1,263.32,7.56Zm-21.07,0a6.69,6.69,0,1,1-6.69,6.69A6.69,6.69,0,0,1,242.25,7.56ZM221.19,109.28a6.69,6.69,0,1,1,6.69-6.69A6.69,6.69,0,0,1,221.19,109.28Zm0-22.09a6.69,6.69,0,1,1,6.69-6.69A6.69,6.69,0,0,1,221.19,87.2Zm0-22.09a6.69,6.69,0,1,1,6.69-6.69A6.69,6.69,0,0,1,221.19,65.11Zm0-22.09a6.69,6.69,0,1,1,6.69-6.69A6.69,6.69,0,0,1,221.19,43Zm0-22.09a6.69,6.69,0,1,1,6.69-6.69A6.69,6.69,0,0,1,221.19,20.94Zm21.07,88.34a6.69,6.69,0,1,1,6.69-6.69A6.69,6.69,0,0,1,242.25,109.28Zm21.07,0a6.69,6.69,0,1,1,6.69-6.69A6.69,6.69,0,0,1,263.32,109.28Z"/><path class="cls-1" d="M342.47,4.79A37.1,37.1,0,0,1,379.66,42c0,12.92-7.84,25.24-20,31.39l-1.37.69.77,1.33,22.73,39.2H357.48l-20.83-36.3-.42-.73H321.7v37H298.84V4.79h43.63M321.7,57.92h20.77c8,0,14.33-7,14.33-15.94S350.51,26,342.47,26H321.7V57.92M342.47,3.34H297.39V116h25.76V79h12.24l21.25,37h27.69l-24-41.37c12.4-6.28,20.77-18.84,20.77-32.68A38.55,38.55,0,0,0,342.47,3.34ZM323.15,56.47v-29h19.32c7.08,0,12.88,6.28,12.88,14.49s-5.8,14.49-12.88,14.49Z"/><path class="cls-1" d="M381.11,42a38.51,38.51,0,0,0-9.18-25l.17.2-8.7,7.08a25.64,25.64,0,0,1,5.95,16.17c0,.19,0,.37,0,.56s0,.38,0,.56c0,9.59-5.8,18.72-14.78,23.27v0a27.3,27.3,0,0,1-12.44,3.11l22.42,37.38,19.3,9.95-23.5-40.54C372.74,68.38,381.11,55.83,381.11,42Z"/><polygon class="cls-1" points="335.83 78.77 341.42 67.88 310.1 67.88 310.1 106.11 298.21 116.04 323.15 116.04 323.15 79.01 335.39 79.01 335.83 78.77"/><path class="cls-1" d="M352.65,33l-.66-.81,9.81-8a26.38,26.38,0,0,0-19.93-9.1H310.1V67.3L322.82,57l.33-.64V27.49h19.32c7.08,0,12.88,6.28,12.88,14.49"/><path class="cls-1" d="M455.08,54.33V76.87h30.11c-4,10.79-13.85,17.39-28.82,17.39-21.9,0-35.42-14-35.42-33.16,0-19.8,14.17-33.81,33.16-33.81,12.72,0,22.86,5.8,27.53,13.2l21.89-12.56C494,12.79,475.85,2.17,454.28,2.17c-33.16,0-59.08,26.08-59.08,58.76,0,32.36,25.44,58.44,60.85,58.44,31.55,0,55.54-20.93,55.54-55.38V54.33Zm47.39,26.11c-.95,2.24-3.21,3.4-5.2,4.43a9.29,9.29,0,0,0-3.1,2.07,9.32,9.32,0,0,0-.81,3.66c-.23,2.22-.49,4.74-2.22,6.42s-4.23,1.89-6.45,2.08a9.31,9.31,0,0,0-3.69.74,9.24,9.24,0,0,0-2.12,3.05c-1.06,2-2.26,4.21-4.51,5.13s-4.6.14-6.71-.52a9.38,9.38,0,0,0-3.74-.72,9.15,9.15,0,0,0-3.07,2c-1.73,1.44-3.7,3.06-6.16,3.06s-4.42-1.63-6.16-3.06a9.15,9.15,0,0,0-3.07-2,9.3,9.3,0,0,0-3.74.72c-2.11.67-4.5,1.42-6.71.52s-3.45-3.15-4.51-5.13a9.26,9.26,0,0,0-2.12-3.05,9.32,9.32,0,0,0-3.69-.74c-2.22-.18-4.73-.39-6.45-2.08s-2-4.21-2.22-6.42a9.3,9.3,0,0,0-.81-3.66,9.28,9.28,0,0,0-3.1-2.07c-2-1-4.25-2.19-5.2-4.43s-.2-4.62.44-6.74A9.4,9.4,0,0,0,408,70a9.2,9.2,0,0,0-2-3.05c-1.45-1.73-3.09-3.7-3.09-6.17s1.64-4.43,3.09-6.17a9.21,9.21,0,0,0,2-3.05,9.4,9.4,0,0,0-.67-3.74c-.64-2.13-1.37-4.54-.44-6.74s3.21-3.4,5.2-4.43a9.29,9.29,0,0,0,3.1-2.07,9.32,9.32,0,0,0,.81-3.66c.23-2.22.49-4.74,2.22-6.42s4.23-1.89,6.45-2.08a9.32,9.32,0,0,0,3.69-.74,9.26,9.26,0,0,0,2.12-3.05c1.06-2,2.26-4.21,4.52-5.13s4.6-.14,6.71.52a9.42,9.42,0,0,0,3.74.72,9.16,9.16,0,0,0,3.07-2c1.73-1.44,3.7-3.06,6.16-3.06s4.42,1.63,6.16,3.06a9.15,9.15,0,0,0,3.07,2,9.41,9.41,0,0,0,3.74-.72c2.11-.67,4.51-1.42,6.71-.52s3.45,3.15,4.51,5.13A9.25,9.25,0,0,0,481,21.63a9.31,9.31,0,0,0,3.69.74,17.4,17.4,0,0,1,4,.66,2.09,2.09,0,0,1-1.32,4,14.24,14.24,0,0,0-3.06-.46,11.85,11.85,0,0,1-5.64-1.41,11.74,11.74,0,0,1-3.51-4.57c-.76-1.42-1.55-2.88-2.4-3.23s-2.44.18-3.88.64c-1.89.6-3.84,1.21-5.8.83a11.6,11.6,0,0,1-4.94-2.88c-1.25-1-2.54-2.1-3.49-2.1s-2.24,1.07-3.49,2.1a11.61,11.61,0,0,1-4.94,2.88,11.89,11.89,0,0,1-5.8-.83c-1.44-.45-3.07-1-3.88-.64s-1.64,1.81-2.4,3.23a11.74,11.74,0,0,1-3.51,4.57A11.84,11.84,0,0,1,425,26.54c-1.51.13-3.23.27-3.87.9s-.82,2.35-1,3.87a11.83,11.83,0,0,1-1.52,5.59A11.8,11.8,0,0,1,414,40.32c-1.43.74-2.91,1.5-3.26,2.34s.15,2.45.59,3.9a12,12,0,0,1,.77,5.78,11.66,11.66,0,0,1-2.9,4.9c-1,1.25-2.12,2.54-2.12,3.49s1.08,2.24,2.12,3.49a11.66,11.66,0,0,1,2.9,4.91,12,12,0,0,1-.77,5.78c-.44,1.45-.94,3.09-.59,3.9s1.83,1.6,3.26,2.34a11.77,11.77,0,0,1,4.64,3.43,11.82,11.82,0,0,1,1.52,5.59c.16,1.52.34,3.23,1,3.87s2.36.77,3.87.9a11.84,11.84,0,0,1,5.64,1.41,11.73,11.73,0,0,1,3.51,4.57c.76,1.42,1.55,2.88,2.4,3.23s2.44-.18,3.88-.64a11.89,11.89,0,0,1,5.8-.83,11.61,11.61,0,0,1,4.94,2.88c1.25,1,2.54,2.1,3.49,2.1s2.24-1.07,3.49-2.1a11.6,11.6,0,0,1,4.94-2.88c2-.38,3.91.24,5.8.83,1.44.45,3.07,1,3.88.64s1.64-1.81,2.4-3.23a11.73,11.73,0,0,1,3.51-4.57,11.83,11.83,0,0,1,5.64-1.41c1.52-.13,3.23-.27,3.87-.9s.82-2.35,1-3.87a11.83,11.83,0,0,1,1.52-5.59,11.79,11.79,0,0,1,4.64-3.43c1.43-.74,2.91-1.5,3.26-2.34.44-1-.07-2.87-.55-4.65a18,18,0,0,1-.85-4.62c0-.94,0-1.61,0-2.25H466.85a2.09,2.09,0,0,1,0-4.18h32.43a2.09,2.09,0,0,1,2.09,2.09c0,.8,0,1.39,0,2s0,1.35,0,2.34a14.93,14.93,0,0,0,.7,3.51C502.74,75.4,503.47,78.07,502.47,80.44Z"/><path class="cls-1" d="M553.85,3.34H529.77a.68.68,0,0,0-.58,1l10.93,18.77a.68.68,0,0,1-.58,1H524.77a.68.68,0,0,0-.57,1L543.92,56.6a.68.68,0,0,1-.57,1h-14a.68.68,0,0,0-.56,1.05L565.36,113a.68.68,0,0,0,1.21-.58L553.93,72a.68.68,0,0,1,.65-.88h9.57a.68.68,0,0,0,.62-.94L552.7,41.2a.68.68,0,0,1,.62-.94h13a.68.68,0,0,0,.64-.9L554.49,3.79A.68.68,0,0,0,553.85,3.34Z"/><path class="cls-1" d="M557.71,114.28a1.68,1.68,0,0,1-1.4-.75L521.65,62.08a1.69,1.69,0,0,1,1.4-2.64h12.59l-18.4-29.31a1.69,1.69,0,0,1,1.43-2.59H532L522,10.28a1.69,1.69,0,0,1,1.46-2.54h22.85a1.69,1.69,0,0,1,1.6,1.13l11.86,33.81a1.69,1.69,0,0,1-1.6,2.25H546.37l11.26,27a1.69,1.69,0,0,1-1.56,2.34h-8.56l11.82,37.81a1.68,1.68,0,0,1-.88,2A1.7,1.7,0,0,1,557.71,114.28Zm-34-52.8,33,49-11.27-36a1.69,1.69,0,0,1,1.61-2.2h8.51l-11.26-27a1.69,1.69,0,0,1,1.56-2.34h11.81L546.05,9.76H524L534.08,27a1.69,1.69,0,0,1-1.46,2.54H519.29l18.4,29.31a1.69,1.69,0,0,1-1.43,2.59Z"/><path class="cls-1" d="M629.14,47.65c-17.55-5.31-20.29-8.85-20.29-14,0-4.51,4-8.53,12.07-8.53,9.06,0,14.27,3.86,18,10.27a3.13,3.13,0,0,0,4.28,1.12L659.54,27a3.14,3.14,0,0,0,1.15-4.25C652.28,7.88,638.4,0,620.93,0c-19.48,0-37.83,12.56-37.83,34.29,0,21.57,16.42,29.62,33.16,34.29,16.9,4.67,23.34,7.41,23.34,14.33,0,4.35-3.06,9.18-15.29,9.18-11.37,0-18.1-5-22.28-12.75a3.12,3.12,0,0,0-4.3-1.18L580.81,88a3.13,3.13,0,0,0-1.3,4c6.84,15.15,21.59,25.25,44,25.25,24.47,0,41.86-12.88,41.86-34.61C665.36,58.76,646.2,52.8,629.14,47.65Zm-3.44,64.29q-1.34.07-2.66.07c-14.71,0-27-6.36-34.83-18.08l-1-1.54,11.74-6.9.58.87c5.63,8.43,14.46,12.57,25.51,12,16.89-.86,21.4-10.11,21.4-15.44,0-5-2-12.16-19-16.68l-13.7-3.73,0-.18c-11.48-3.66-24.61-11.6-24.61-28.77,0-15.69,12.58-27.36,30.58-28.39,14.22-.81,26.1,5.48,33.46,17.73l.5.75L642,30.55l-.35-.53c-4.77-8-11.89-11.79-21.11-11.28-8.2.47-17.77,4.63-17.77,14.82,0,5.27,1.82,11.86,16,16.08l0,.14L631,53.12c13.22,3.52,29,11.56,29,29.81C660,99.24,646.21,110.9,625.7,111.94Z"/><path class="cls-1" d="M616.52,57.54c-14.34-4.27-21.6-12.21-21.6-23.6,0-14.65,12.64-21.93,25.16-22.65,12-.68,22.08,4.67,28.29,15.09l1,1.49L647.62,29l-1-1.53c-5.9-9.9-15-14.76-26.4-14.12S597,20.65,597,33.94c0,10.5,6.58,17.56,20.11,21.59Z"/><path class="cls-1" d="M623.08,106.64c-12.74,0-23.36-5.46-30.08-15.52l-1.3-1.93L593.43,88l1.3,1.93c6.8,10.19,17.35,15.22,30.57,14.54,13.37-.68,26.85-7.49,26.85-21.18,0-10.8-7.6-18.07-23.25-22.24l-13.67-3.73.55-2L629.45,59c16.68,4.44,24.79,12.38,24.79,24.26,0,15.06-14.48,22.54-28.84,23.27C624.62,106.62,623.84,106.64,623.08,106.64Z"/><path class="cls-1" d="M705.08,89.08v-20h40.25V44.64H705.08V26h44.27V1.17h-70V113.87h70.84V89.08Zm35.74,16.56H688V9.44h52.8v8.36H696.39V52.7h40v8.36h-40V97.28h44.43Z"/><rect class="cls-1" y="2.6" width="4.16" height="112.01"/><rect class="cls-1" x="11" y="2.6" width="4.16" height="112.01"/><rect class="cls-1" x="22" y="2.6" width="4.16" height="112.01"/><rect class="cls-1" x="24.08" y="45.52" width="41.92" height="4.16"/><rect class="cls-1" x="24.08" y="56.52" width="41.92" height="4.16"/><rect class="cls-1" x="24.08" y="67.52" width="41.92" height="4.16"/><rect class="cls-1" x="24.08" y="2.52" width="45.92" height="4.16"/><rect class="cls-1" x="24.08" y="13.52" width="45.92" height="4.16"/><rect class="cls-1" x="24.08" y="24.52" width="45.92" height="4.16"/><rect class="cls-1" x="24.08" y="88.04" width="45.92" height="4.16"/><rect class="cls-1" x="24.08" y="99.04" width="45.92" height="4.16"/><rect class="cls-1" x="24.08" y="110.04" width="45.92" height="4.16"/></g></g></svg>